<?xml version="1.0" encoding="utf-8"?>
<!-- Generator: Adobe Illustrator 16.0.0, SVG Export Plug-In . SVG Version: 6.00 Build 0)  -->
<!DOCTYPE svg PUBLIC "-//W3C//DTD SVG 1.1//EN" "http://www.w3.org/Graphics/SVG/1.1/DTD/svg11.dtd">
<svg version="1.1" id="Layer_1" xmlns="http://www.w3.org/2000/svg" xmlns:xlink="http://www.w3.org/1999/xlink" x="0px" y="0px"
	 width="24px" height="24px" viewBox="0 0 24 24" enable-background="new 0 0 24 24" xml:space="preserve">
<path fill="#3C81F5" d="M11.419,19.792l-0.094-0.082l-7.03-6.971c-0.027-0.027-0.054-0.06-0.08-0.089l0.08,0.089
	c-0.035-0.035-0.068-0.071-0.098-0.111c-0.017-0.023-0.034-0.048-0.05-0.075c-0.007-0.012-0.017-0.023-0.021-0.035
	c-0.011-0.021-0.021-0.042-0.031-0.063c-0.008-0.017-0.016-0.033-0.022-0.051c-0.007-0.02-0.016-0.04-0.022-0.06
	c-0.005-0.015-0.01-0.03-0.015-0.044c-0.006-0.021-0.011-0.043-0.016-0.065c-0.002-0.017-0.007-0.035-0.009-0.052
	c-0.004-0.021-0.006-0.042-0.008-0.062C4.001,12.101,4,12.083,4,12.065c0-0.01-0.001-0.021-0.001-0.032L4,12
	C4,11.982,4.001,11.964,4.002,11.948l-0.003,0.086c0-0.051,0.004-0.101,0.012-0.15c0.001-0.017,0.005-0.035,0.007-0.052
	c0.006-0.021,0.01-0.044,0.017-0.065c0.005-0.016,0.01-0.031,0.015-0.046c0.007-0.02,0.013-0.04,0.02-0.058
	c0.007-0.019,0.015-0.036,0.022-0.052c0.009-0.021,0.02-0.042,0.031-0.062c0.005-0.012,0.013-0.023,0.021-0.035
	c0.016-0.027,0.031-0.051,0.049-0.077c0.006-0.006,0.01-0.011,0.014-0.018c0.005-0.005,0.007-0.009,0.011-0.011l0.072-0.082
	l6.97-7.03c0.39-0.393,1.022-0.395,1.415-0.006c0.361,0.357,0.392,0.926,0.089,1.32l-0.082,0.094L7.41,11.019l11.584-0.049
	c0.552-0.002,1.002,0.443,1.005,0.996c0.002,0.513-0.382,0.938-0.878,0.997l-0.117,0.008L7.418,13.019l5.315,5.271
	c0.36,0.357,0.394,0.928,0.088,1.319l-0.082,0.095C12.381,20.064,11.813,20.097,11.419,19.792z"/>
</svg>
