<?xml version="1.0" encoding="iso-8859-1"?>
<!-- Generator: Adobe Illustrator 19.0.0, SVG Export Plug-In . SVG Version: 6.00 Build 0)  -->
<svg version="1.1" id="Capa_1" xmlns="http://www.w3.org/2000/svg" xmlns:xlink="http://www.w3.org/1999/xlink" x="0px" y="0px"
	 viewBox="0 0 512 512" style="enable-background:new 0 0 512 512;" xml:space="preserve">
<polygon style="fill:#EDE9E8;" points="512,180 512,512 0,512 0,180 30,150 481,150 "/>
<polygon style="fill:#DFD7D5;" points="512,180 512,512 256,512 256,150 481,150 "/>
<rect y="60" style="fill:#F50B75;" width="512" height="120"/>
<rect x="256" y="60" style="fill:#D20763;" width="256" height="120"/>
<g>
	<path style="fill:#D2C5C2;" d="M151,331H61v-90h90V331z"/>
	<path style="fill:#D2C5C2;" d="M211,241v90h90v-90H211z"/>
</g>
<path style="fill:#C4B3AF;" d="M451,331h-90v-90h90V331z"/>
<g>
	<path style="fill:#D2C5C2;" d="M151,451H61v-90h90V451z"/>
	<path style="fill:#D2C5C2;" d="M211,361v90h90v-90H211z"/>
</g>
<path style="fill:#C4B3AF;" d="M451,451h-90v-90h90V451z"/>
<path style="fill:#444444;" d="M391,75c0-29.033,11.265-45,15-45c3.008,0,10.627,10.798,13.585,30h30.564
	C446.203,24.932,428.546,0,406,0c-25.649,0-45,32.241-45,75s19.351,75,45,75v-30C402.265,120,391,104.033,391,75z"/>
<g>
	<path style="fill:#5A5A5A;" d="M300.099,60H269.5c-3.001-19.2-10.501-30-13.5-30c-3.6,0-15,15.899-15,45c0,29.099,11.4,45,15,45v30
		c-25.499,0-45-32.1-45-75s19.501-75,45-75C278.5,0,296.201,24.899,300.099,60z"/>
	<path style="fill:#5A5A5A;" d="M91,75c0-29.033,11.265-45,15-45c3.008,0,10.627,10.798,13.585,30h30.564
		C146.203,24.932,128.546,0,106,0C80.351,0,61,32.241,61,75s19.351,75,45,75v-30C102.265,120,91,104.033,91,75z"/>
</g>
<g>
	<rect x="256" y="241" style="fill:#C4B3AF;" width="45" height="90"/>
	<rect x="256" y="361" style="fill:#C4B3AF;" width="45" height="90"/>
</g>
<path style="fill:#444444;" d="M300.099,60H269.5c-3.001-19.2-10.501-30-13.5-30V0C278.5,0,296.201,24.899,300.099,60z"/>
<g>
</g>
<g>
</g>
<g>
</g>
<g>
</g>
<g>
</g>
<g>
</g>
<g>
</g>
<g>
</g>
<g>
</g>
<g>
</g>
<g>
</g>
<g>
</g>
<g>
</g>
<g>
</g>
<g>
</g>
</svg>
