<?xml version="1.0" encoding="utf-8"?>
<!-- Generator: Adobe Illustrator 23.0.1, SVG Export Plug-In . SVG Version: 6.00 Build 0)  -->
<svg version="1.1" id="Layer_1" xmlns="http://www.w3.org/2000/svg" xmlns:xlink="http://www.w3.org/1999/xlink" x="0px" y="0px"
	 viewBox="0 0 208.7 75.9" style="enable-background:new 0 0 208.7 75.9;" xml:space="preserve">
<style type="text/css">
	.st0{fill:#333333;}
	.st1{fill:#FF7900;}
	.st2{fill:#6C6C6C;}
</style>
<g>
	<g>
		<path class="st0" d="M117.9,35c0.9,0,1.4,1.2,1.4,3.5c0,2.3-0.4,4.4-1.3,6.2c-0.9,1.8-1.9,3.2-3.1,4.2c-1.2,1-2.6,1.8-4.1,2.4
			c-5.1,2.3-9.9,2.2-14.4-0.1c-2.3-1.2-4-2.6-5.2-4.3c-1.2-1.7-2.2-3.6-2.9-5.9c-1.1-3.5-1.7-7.1-1.7-10.9c0-3.8,0.4-7.3,1.1-10.6
			c0.7-3.3,1.8-6.5,3.3-9.5c1.5-3,3.6-5.4,6.3-7.2c2.7-1.8,5.9-2.7,9.5-2.7c1.5,0,3.1,0.3,4.8,0.8c1.7,0.5,3,1.1,4.1,1.9
			c1.1,0.7,2,1.9,2.8,3.4c0.8,1.5,1.2,3.3,1.2,5.4c0,2.2-0.5,4.2-1.6,6c-0.5,0.8-1.2,1.5-2.3,2.2c-1.1,0.6-2.3,1-3.7,1
			c-2.2,0-3.8-1-4.7-2.9c-0.4-0.8-0.6-1.6-0.6-2.5c0-0.9,0.3-1.4,0.9-1.6c0.7-0.2,1.3-0.7,1.9-1.6c0.6-0.9,0.9-1.9,0.9-3
			c0-0.9-0.2-1.7-0.7-2.4c-0.9-1.2-2.2-1.8-4-1.8s-3.3,0.8-4.7,2.4c-1.4,1.6-2.5,3.6-3.2,6c-1.4,4.8-2.2,9.2-2.2,13.2
			c0,4,0.6,7.3,1.7,9.7c1.3,3,3,5,5.1,6c1.3,0.6,2.8,0.9,4.5,0.9c2.8,0,5.4-1.3,7.6-3.8c1-1,1.8-2.2,2.4-3.6
			C117.2,35.2,117.5,35,117.9,35z"/>
		<path class="st0" d="M132.5,12.8l-0.1,7c0,0.3,0.1,0.4,0.3,0.4c0.2,0,0.4-0.1,0.6-0.2c1.2-0.8,3.1-1.2,5.7-1.2
			c4.4,0,7.4,1.5,9.1,4.5c0.6,1.1,0.9,2.6,0.9,4.4c0,1.8-0.1,4.3-0.3,7.6c-0.2,3.2-0.3,5.5-0.3,6.8c0,4.7,0.7,7.8,2,9.4
			c0.2,0.2,0.4,0.5,0.4,0.7c0,0.5-1,0.7-3.1,0.7c-5.6,0-8.3-2.6-8.3-7.8c0-2,0.5-4.8,1.4-8.5c1-3.6,1.4-6.3,1.4-8.1
			c0-1.7-0.4-3.1-1.2-4c-0.8-0.9-1.9-1.4-3.4-1.4c-1.4,0-2.6,0.3-3.4,0.9c-0.8,0.6-1.4,1.3-1.5,1.9l-0.2,0.9c0,0.9-0.1,3.8-0.1,8.7
			s0.1,8.1,0.4,9.5c0.2,1.5,0.4,2.3,0.4,2.5c0,1.4-0.9,2.6-2.8,3.7c-1.9,1.1-3.7,1.6-5.5,1.6c-0.7,0-1-0.4-1-1.2l0.1-1.4
			c1.1-8.1,1.6-16.8,1.6-26.2c0-3.6-0.1-7.3-0.4-11.1l-0.1-1.6c-0.1-1.3-0.4-2.5-0.8-3.5c-0.5-1-0.9-1.6-1.3-1.9l-0.6-0.4
			c-0.3-0.2-0.5-0.4-0.5-0.6c0-0.7,1.1-1.5,3.4-2.5c2.3-1,4-1.5,5.2-1.5c1.2,0,1.9,0.3,2,0.8C132.4,4.5,132.5,8.1,132.5,12.8z"/>
		<path class="st0" d="M154.5,49.3l0.8-16.8c0-4-0.5-6.7-1.4-8.1c-0.3-0.5-0.6-0.8-1-1.1c-0.3-0.1-0.4-0.3-0.4-0.6
			c0-0.9,1.2-1.7,3.7-2.5c2.4-0.8,4.2-1.2,5.4-1.2c1.1,0,1.7,0.3,1.8,0.9c0,1-0.1,3.7-0.4,8.2c-0.3,4.5-0.4,9.2-0.4,14.1
			c0,4.9,0.3,8,0.9,9.2c0.1,0.2,0.2,0.5,0.2,0.7c0,0.6-0.9,0.9-2.7,0.9s-3.7-0.5-5.6-1.4C154.8,51.3,154.5,50.6,154.5,49.3z
			 M160.3,12.9l-1.7-0.1c-1.3,0-2.1,0.3-2.5,0.9c-0.1,0.1-0.2,0.2-0.4,0.2c-0.6,0-0.9-1.1-0.9-3.2c0-2.1,0.3-3.5,1-4.1
			c0.6-0.6,1.8-0.9,3.4-0.9c1.6,0,2.7,0.3,3.3,0.8c0.6,0.6,0.9,1.5,0.9,2.8s-0.2,2.2-0.6,2.7C162.2,12.7,161.4,12.9,160.3,12.9z"/>
		<path class="st0" d="M177.7,10.3l-0.4,26.4c0,8.2,0.3,13.2,0.8,14.8c0.1,0.3,0.2,0.6,0.2,0.9c0,0.6-0.7,0.9-2.1,0.9
			c-1.4,0-2.9-0.3-4.6-1c-1.7-0.7-2.6-1.6-2.6-2.7c1-6.7,1.4-15.7,1.4-26.9l-0.3-11c-0.1-1.3-0.4-2.5-0.8-3.5
			c-0.5-1-0.9-1.6-1.3-1.9l-0.6-0.4c-0.3-0.2-0.5-0.4-0.5-0.6c0-0.7,1-1.5,3.1-2.5c2.1-1,4.1-1.5,6.1-1.5c0.8,0,1.2,0.3,1.3,0.8
			C177.6,3.3,177.7,6.1,177.7,10.3z"/>
		<path class="st0" d="M197,19.1c0.9,0,1.6,0.1,2.3,0.3c0.7,0.2,1.1,0.3,1.1,0.3l0.4-0.4l-0.3-7.8c-0.1-1.3-0.4-2.5-0.9-3.5
			c-0.5-1-0.9-1.6-1.3-1.9l-0.6-0.4c-0.3-0.2-0.4-0.4-0.4-0.6c0-0.7,1.1-1.6,3.3-2.5c2.2-1,4-1.4,5.2-1.4c1.2,0,1.9,0.3,2,0.8
			c0.2,1.6,0.4,4.7,0.4,9.3c0,4.6-0.1,9.1-0.3,13.5c-0.2,4.4-0.3,9.4-0.3,15c0,5.6,0.4,9.1,1.1,10.5c0.2,0.3,0.3,0.6,0.3,0.9
			c0,0.7-1,1.1-3.1,1.1c-3.9,0-5.9-0.9-5.9-2.8c-0.1-0.8-0.1-2-0.1-3.6c0-1.6,0.2-4.6,0.5-9c0.3-4.4,0.5-7.8,0.5-10.1
			c0-2.4-1.2-3.6-3.6-3.6c-2.4,0-4.2,1.4-5.4,4.2c-1.2,2.8-1.9,5.6-1.9,8.3c0,5.9,1.5,8.8,4.5,8.8c0.4,0,0.9-0.1,1.3-0.3
			c0.4-0.2,0.7-0.3,0.8-0.3c0.4,0,0.7,0.2,0.9,0.7c0.2,0.5,0.3,1,0.3,1.4c0,1.6-0.6,3-1.9,4.1c-1.3,1.1-2.9,1.7-4.7,1.7
			c-2.9,0-5-1.3-6.5-3.8c-1.5-2.5-2.2-5.6-2.2-9.4c0-4.7,1.1-9.2,3.4-13.2c1.2-2,2.7-3.6,4.7-4.9C192.2,19.7,194.5,19.1,197,19.1z"
			/>
	</g>
	<g>
		<path class="st1" d="M76.9,24.1V0H0v76.9h76.9V55.4H66.7v11.3H10.2V10.2h56.5v13.9H76.9z"/>
		<polygon class="st1" points="50.5,18.9 43.4,18.9 33.6,18.9 26.3,18.9 16.5,18.9 16.5,27.7 16.5,59.2 26.3,59.2 26.3,27.7 
			33.6,27.7 33.6,59.2 43.4,59.2 43.4,27.7 50.5,27.7 50.5,59.2 59.3,59.2 59.3,27.7 59.3,18.9 		"/>
		<line class="st1" x1="76.9" y1="24.1" x2="66.7" y2="24.1"/>
		<line class="st1" x1="76.9" y1="55.4" x2="66.7" y2="55.4"/>
	</g>
	<g>
		<path class="st2" d="M91.4,76.4c0.2-1.1,0.3-2.7,0.3-4.7c0-2,0-3.2,0-3.6c0-0.4-0.1-0.7-0.3-0.9c-0.2-0.2-0.4-0.4-0.5-0.4
			s-0.4,0-0.6,0c-0.3,0-0.5,0.1-0.8,0.4c-0.3,0.2-0.4,0.5-0.5,0.8l-0.1,0.4c0,0.5-0.1,1.5-0.1,3.2c0,1.6,0,2.7,0.1,3.1
			C89,75,89,75.3,89,75.4c0,0.1-0.1,0.3-0.2,0.4c-0.5,0.6-1.3,0.9-2.3,0.9c-0.4,0-0.5-0.1-0.5-0.3c0.3-1.9,0.5-4.3,0.5-7.3
			c0-1.1,0-1.8-0.1-2.2l-0.1-0.8c0-0.2,0-0.4-0.1-0.6c0-0.2,0.2-0.3,0.7-0.3c0.7,0,1.2,0.3,1.5,0.8c0,0.1,0,0.1,0.1,0.1
			s0.2-0.1,0.3-0.2c0.5-0.4,1.2-0.6,2.1-0.6c0.5,0,1,0.1,1.5,0.3c0.5,0.2,0.8,0.4,1,0.8c0,0,0,0,0.1,0s0.1,0,0.1-0.1
			c0.7-0.7,1.5-1,2.6-1c1.4,0,2.4,0.5,2.9,1.5c0.2,0.4,0.3,0.9,0.3,1.5c0,0.6,0,1.5-0.1,2.6c-0.1,1.1-0.1,2-0.1,2.6
			c0,0.6,0.1,1.1,0.2,1.6c0.1,0.5,0.2,0.8,0.4,1c0.1,0.2,0.2,0.3,0.2,0.4c0,0.2-0.2,0.3-0.7,0.3c-1.1,0-1.9-0.2-2.3-0.7
			c-0.4-0.4-0.6-1-0.6-1.8c0-0.7,0.1-1.7,0.4-2.9c0.3-1.2,0.4-2.2,0.4-2.8c0-1.3-0.5-1.9-1.5-1.9c-0.4,0-0.8,0.1-1,0.4
			c-0.3,0.3-0.4,0.5-0.5,0.8l0,0.4c-0.1,0.7-0.1,1.6-0.1,2.7c0,1,0,1.8,0,2.4c0,0.6,0.1,1,0.1,1.4c0,0.3,0,0.5,0,0.6
			c0,0.4-0.3,0.8-0.8,1c-0.6,0.2-1.1,0.4-1.6,0.4C91.5,76.7,91.4,76.6,91.4,76.4z"/>
		<path class="st2" d="M108.7,69.1l0,3.1c0,2.1,0.2,3.4,0.7,3.8c0.1,0.1,0.1,0.1,0.1,0.2c0,0.2-0.5,0.4-1.5,0.4
			c-1,0-1.6-0.3-1.6-0.9c0-0.1,0-0.4,0-0.9l0.1-3.8c0-0.1-0.1-0.2-0.2-0.2c-0.8,0-1.5,0.2-2.1,0.6c-0.7,0.4-1,1-1,1.6
			c0,0.4,0.1,0.6,0.3,0.9c0.2,0.2,0.4,0.4,0.7,0.4c0.3,0,0.5-0.1,0.7-0.2c0.2-0.1,0.3-0.2,0.3-0.2c0.3,0,0.4,0.3,0.4,0.8
			c0,0.5-0.2,1-0.7,1.3c-0.5,0.3-1,0.5-1.6,0.5c-0.5,0-1-0.1-1.4-0.3c-0.4-0.2-0.7-0.4-0.8-0.6c-0.2-0.2-0.3-0.5-0.4-0.8
			c-0.1-0.4-0.2-0.7-0.2-1c0-1.1,0.3-2,1.1-2.7c0.7-0.7,1.6-1.1,2.7-1.4c1.4-0.3,2.2-0.5,2.3-0.8c0-0.2,0.1-0.5,0.1-0.9
			c0-0.8-0.4-1.3-1.3-1.3c-0.4,0-0.7,0.1-1,0.3c-0.3,0.2-0.4,0.5-0.4,0.9l0.1,0.6c0,0.3-0.3,0.4-0.9,0.5l-0.3,0
			c-0.5,0-0.9-0.1-1.1-0.4c-0.3-0.2-0.4-0.6-0.4-1c0-0.3,0.1-0.5,0.3-0.8c0.2-0.3,0.4-0.6,0.6-0.8c0.3-0.2,0.6-0.4,1.2-0.5
			c0.5-0.2,1-0.2,1.5-0.2c0.5,0,0.9,0,1.1,0c0.3,0,0.6,0.1,1.1,0.2c0.5,0.1,0.9,0.3,1.2,0.7c0.3,0.3,0.5,0.7,0.5,1.1
			C108.7,67.8,108.7,68.4,108.7,69.1z"/>
		<path class="st2" d="M109.8,66.9l0.1-1c0-0.1,0.1-0.2,0.3-0.2h0.8l-0.1-1.9v-0.1c0-0.4,0.3-0.7,0.8-1.1c0.6-0.3,1.1-0.5,1.5-0.5
			c0.1,0,0.2,0.1,0.2,0.2v0c-0.1,0.4-0.1,1.5-0.2,3.3c0.7,0,1.1,0,1.3,0s0.3,0,0.3,0c0.1,0,0.2,0.1,0.2,0.3s-0.1,0.4-0.3,0.7
			c-0.2,0.3-0.4,0.5-0.6,0.5h-1c0,0.5,0,1.5,0,2.7c0,1.3,0,2.3,0,3.2c0,0.8,0.1,1.5,0.1,1.9s0.1,0.8,0.1,1c0,0.3,0.1,0.4,0.1,0.5
			c0,0.1,0,0.2,0,0.2c0,0.2-0.1,0.2-0.3,0.3c-0.6,0-1.2-0.1-1.9-0.3c-0.6-0.2-0.9-0.5-0.9-0.9c0.3-2.7,0.5-5.5,0.5-8.6
			c-0.4,0-0.8,0-1,0h0C109.9,67.2,109.8,67.1,109.8,66.9z"/>
		<path class="st2" d="M118.6,63.4l0,2.3c0,0.1,0,0.1,0.1,0.1c0.1,0,0.1,0,0.2-0.1c0.4-0.3,1-0.4,1.9-0.4c1.4,0,2.5,0.5,3,1.5
			c0.2,0.4,0.3,0.9,0.3,1.5c0,0.6,0,1.4-0.1,2.5c-0.1,1.1-0.1,1.8-0.1,2.3c0,1.6,0.2,2.6,0.7,3.1c0.1,0.1,0.1,0.2,0.1,0.2
			c0,0.2-0.3,0.2-1,0.2c-1.8,0-2.8-0.9-2.8-2.6c0-0.7,0.2-1.6,0.5-2.8c0.3-1.2,0.5-2.1,0.5-2.7c0-0.6-0.1-1-0.4-1.3
			c-0.3-0.3-0.6-0.5-1.1-0.5c-0.5,0-0.9,0.1-1.1,0.3c-0.3,0.2-0.5,0.4-0.5,0.6l-0.1,0.3c0,0.3,0,1.3,0,2.9s0,2.7,0.1,3.2
			c0.1,0.5,0.1,0.8,0.1,0.8c0,0.5-0.3,0.9-0.9,1.2c-0.6,0.4-1.2,0.5-1.8,0.5c-0.2,0-0.3-0.1-0.3-0.4l0-0.5c0.3-2.7,0.5-5.6,0.5-8.7
			c0-1.2,0-2.4-0.1-3.7l0-0.5c0-0.4-0.1-0.8-0.3-1.1c-0.2-0.3-0.3-0.5-0.4-0.6l-0.2-0.1c-0.1-0.1-0.2-0.1-0.2-0.2
			c0-0.2,0.4-0.5,1.1-0.8c0.7-0.3,1.3-0.5,1.7-0.5c0.4,0,0.6,0.1,0.7,0.3C118.6,60.7,118.6,61.9,118.6,63.4z"/>
		<path class="st2" d="M132.8,73.4c0,0.6-0.1,1.1-0.4,1.6c-0.2,0.5-0.5,0.8-0.8,1c-0.3,0.2-0.7,0.4-1.1,0.5c-0.5,0.2-1,0.2-1.5,0.2
			c-1.3,0-2.3-0.5-3-1.5c-0.6-1-1-2.3-1-3.8c0-1.6,0.4-2.9,1.2-4.1c0.8-1.2,2-1.8,3.5-1.8c1.4,0,2.4,0.5,2.9,1.5
			c0.2,0.4,0.3,0.7,0.3,1.1c0,0.3,0,0.6,0,0.8c0,0.2-0.1,0.5-0.3,0.9c-0.2,0.4-0.4,0.8-0.8,1.1c-0.3,0.3-0.8,0.6-1.5,0.9
			c-0.7,0.3-1.5,0.5-2.4,0.6c-0.1,0-0.2,0.1-0.2,0.2c0,0.1,0.1,0.4,0.2,0.6c0.1,0.3,0.2,0.5,0.3,0.7c0.3,0.4,0.9,0.7,1.6,0.7
			c0.7,0,1.3-0.2,1.7-0.7c0.3-0.2,0.5-0.5,0.6-0.9c0.1-0.1,0.1-0.2,0.3-0.2c0.1,0,0.2,0.1,0.3,0.3C132.8,73.1,132.8,73.3,132.8,73.4
			z M127.6,70.2l0,0.6c0,0.1,0.1,0.1,0.2,0.1c0.5,0,1-0.2,1.3-0.4c0.4-0.2,0.7-0.5,0.9-0.7c0.4-0.6,0.6-1.1,0.6-1.5l0-0.3
			c0-0.9-0.3-1.3-1-1.3c-0.5,0-0.9,0.2-1.2,0.7C127.9,68.1,127.6,69,127.6,70.2z"/>
		<path class="st2" d="M139.5,76.4c0.2-1.1,0.3-2.7,0.3-4.7c0-2,0-3.2,0-3.6c0-0.4-0.1-0.7-0.3-0.9c-0.2-0.2-0.4-0.4-0.5-0.4
			c-0.2,0-0.4,0-0.6,0c-0.3,0-0.5,0.1-0.8,0.4c-0.3,0.2-0.4,0.5-0.5,0.8l-0.1,0.4c0,0.5-0.1,1.5-0.1,3.2c0,1.6,0,2.7,0.1,3.1
			c0.1,0.4,0.1,0.7,0.1,0.8c0,0.1-0.1,0.3-0.2,0.4c-0.5,0.6-1.3,0.9-2.3,0.9c-0.4,0-0.5-0.1-0.5-0.3c0.3-1.9,0.5-4.3,0.5-7.3
			c0-1.1,0-1.8-0.1-2.2l-0.1-0.8c0-0.2,0-0.4-0.1-0.6c0-0.2,0.2-0.3,0.7-0.3c0.7,0,1.2,0.3,1.5,0.8c0,0.1,0,0.1,0.1,0.1
			s0.2-0.1,0.3-0.2c0.5-0.4,1.2-0.6,2.1-0.6c0.5,0,1,0.1,1.5,0.3c0.5,0.2,0.8,0.4,1,0.8c0,0,0,0,0.1,0c0,0,0.1,0,0.1-0.1
			c0.7-0.7,1.5-1,2.6-1c1.4,0,2.4,0.5,2.9,1.5c0.2,0.4,0.3,0.9,0.3,1.5c0,0.6,0,1.5-0.1,2.6c-0.1,1.1-0.1,2-0.1,2.6
			c0,0.6,0.1,1.1,0.2,1.6c0.1,0.5,0.2,0.8,0.4,1c0.1,0.2,0.2,0.3,0.2,0.4c0,0.2-0.2,0.3-0.7,0.3c-1.1,0-1.9-0.2-2.3-0.7
			c-0.4-0.4-0.6-1-0.6-1.8c0-0.7,0.1-1.7,0.4-2.9c0.3-1.2,0.4-2.2,0.4-2.8c0-1.3-0.5-1.9-1.5-1.9c-0.4,0-0.8,0.1-1,0.4
			c-0.3,0.3-0.4,0.5-0.5,0.8l0,0.4c-0.1,0.7-0.1,1.6-0.1,2.7c0,1,0,1.8,0,2.4c0,0.6,0.1,1,0.1,1.4c0,0.3,0,0.5,0,0.6
			c0,0.4-0.3,0.8-0.8,1c-0.6,0.2-1.1,0.4-1.6,0.4C139.7,76.7,139.5,76.6,139.5,76.4z"/>
		<path class="st2" d="M156.8,69.1l0,3.1c0,2.1,0.2,3.4,0.7,3.8c0.1,0.1,0.1,0.1,0.1,0.2c0,0.2-0.5,0.4-1.5,0.4
			c-1,0-1.6-0.3-1.6-0.9c0-0.1,0-0.4,0-0.9l0.1-3.8c0-0.1-0.1-0.2-0.2-0.2c-0.8,0-1.5,0.2-2.1,0.6c-0.7,0.4-1,1-1,1.6
			c0,0.4,0.1,0.6,0.3,0.9s0.4,0.4,0.7,0.4c0.3,0,0.5-0.1,0.7-0.2c0.2-0.1,0.3-0.2,0.3-0.2c0.3,0,0.4,0.3,0.4,0.8
			c0,0.5-0.2,1-0.7,1.3c-0.5,0.3-1,0.5-1.6,0.5c-0.5,0-1-0.1-1.4-0.3c-0.4-0.2-0.7-0.4-0.8-0.6c-0.2-0.2-0.3-0.5-0.4-0.8
			c-0.1-0.4-0.2-0.7-0.2-1c0-1.1,0.3-2,1.1-2.7c0.7-0.7,1.6-1.1,2.7-1.4c1.4-0.3,2.2-0.5,2.3-0.8c0-0.2,0.1-0.5,0.1-0.9
			c0-0.8-0.4-1.3-1.3-1.3c-0.4,0-0.7,0.1-1,0.3c-0.3,0.2-0.4,0.5-0.4,0.9l0.1,0.6c0,0.3-0.3,0.4-0.9,0.5l-0.3,0
			c-0.5,0-0.9-0.1-1.1-0.4c-0.3-0.2-0.4-0.6-0.4-1c0-0.3,0.1-0.5,0.3-0.8c0.2-0.3,0.4-0.6,0.6-0.8c0.3-0.2,0.6-0.4,1.2-0.5
			c0.5-0.2,1-0.2,1.5-0.2c0.5,0,0.9,0,1.1,0c0.3,0,0.6,0.1,1.1,0.2c0.5,0.1,0.9,0.3,1.2,0.7c0.3,0.3,0.5,0.7,0.5,1.1
			C156.8,67.8,156.8,68.4,156.8,69.1z"/>
		<path class="st2" d="M157.9,66.9l0.1-1c0-0.1,0.1-0.2,0.3-0.2h0.8l-0.1-1.9v-0.1c0-0.4,0.3-0.7,0.8-1.1c0.6-0.3,1.1-0.5,1.5-0.5
			c0.1,0,0.2,0.1,0.2,0.2v0c-0.1,0.4-0.1,1.5-0.2,3.3c0.7,0,1.1,0,1.3,0s0.3,0,0.3,0c0.1,0,0.2,0.1,0.2,0.3s-0.1,0.4-0.3,0.7
			c-0.2,0.3-0.4,0.5-0.6,0.5h-1c0,0.5,0,1.5,0,2.7c0,1.3,0,2.3,0,3.2c0,0.8,0.1,1.5,0.1,1.9c0,0.4,0.1,0.8,0.1,1
			c0,0.3,0.1,0.4,0.1,0.5c0,0.1,0,0.2,0,0.2c0,0.2-0.1,0.2-0.3,0.3c-0.6,0-1.2-0.1-1.9-0.3c-0.6-0.2-0.9-0.5-0.9-0.9
			c0.3-2.7,0.5-5.5,0.5-8.6c-0.4,0-0.8,0-1,0h0C158.1,67.2,158,67.1,157.9,66.9z"/>
		<path class="st2" d="M164.2,75.5l0.3-5.6c0-1.3-0.2-2.2-0.5-2.7c-0.1-0.2-0.2-0.3-0.3-0.4c-0.1,0-0.1-0.1-0.1-0.2
			c0-0.3,0.4-0.6,1.2-0.8c0.8-0.3,1.4-0.4,1.8-0.4c0.4,0,0.6,0.1,0.6,0.3c0,0.3,0,1.2-0.1,2.7c-0.1,1.5-0.1,3.1-0.1,4.7
			c0,1.6,0.1,2.7,0.3,3.1c0,0.1,0.1,0.2,0.1,0.2c0,0.2-0.3,0.3-0.9,0.3c-0.6,0-1.2-0.2-1.9-0.5C164.3,76.2,164.2,76,164.2,75.5z
			 M166.1,63.5l-0.6,0c-0.4,0-0.7,0.1-0.8,0.3c0,0-0.1,0.1-0.1,0.1c-0.2,0-0.3-0.4-0.3-1.1c0-0.7,0.1-1.2,0.3-1.3
			c0.2-0.2,0.6-0.3,1.1-0.3c0.5,0,0.9,0.1,1.1,0.3c0.2,0.2,0.3,0.5,0.3,0.9c0,0.4-0.1,0.7-0.2,0.9C166.7,63.4,166.5,63.5,166.1,63.5
			z"/>
		<path class="st2" d="M176.5,73.5c0,0.9-0.4,1.7-1.1,2.3c-0.7,0.6-1.6,0.9-2.6,0.9c-1.5,0-2.5-0.4-3.2-1.3c-0.7-0.9-1-2.1-1-3.6
			c0-1.6,0.4-3,1.1-4.3c0.3-0.6,0.9-1.1,1.5-1.5c0.7-0.4,1.4-0.5,2.3-0.5c1.3,0,2.3,0.4,2.8,1.3c0.2,0.4,0.3,0.8,0.3,1.3
			c0,0.8-0.3,1.3-1,1.7c-0.3,0.1-0.5,0.2-0.7,0.2c-0.2,0-0.4,0-0.5,0c-0.1,0-0.3-0.1-0.5-0.3c-0.2-0.2-0.3-0.5-0.3-0.8
			c0-0.2,0.2-0.3,0.4-0.4c0.2-0.1,0.4-0.4,0.4-0.8c0-0.6-0.4-0.9-1.1-0.9c-0.2,0-0.4,0.1-0.7,0.3c-0.3,0.2-0.5,0.4-0.7,0.6
			c-0.2,0.3-0.3,0.7-0.5,1.2c-0.2,0.6-0.2,1.1-0.2,1.6c0,0.5,0,0.9,0.1,1.2c0,0.3,0.1,0.6,0.3,1.1c0.1,0.5,0.4,0.8,0.8,1.1
			c0.4,0.3,0.8,0.4,1.4,0.4c0.7,0,1.3-0.3,1.8-0.8c0.2-0.2,0.4-0.5,0.5-0.8c0.1-0.1,0.1-0.2,0.2-0.2c0.1,0,0.3,0.1,0.3,0.4
			C176.4,73.1,176.5,73.3,176.5,73.5z"/>
		<path class="st2" d="M178.3,75.5l0.3-5.6c0-1.3-0.2-2.2-0.5-2.7c-0.1-0.2-0.2-0.3-0.3-0.4c-0.1,0-0.1-0.1-0.1-0.2
			c0-0.3,0.4-0.6,1.2-0.8c0.8-0.3,1.4-0.4,1.8-0.4c0.4,0,0.6,0.1,0.6,0.3c0,0.3,0,1.2-0.1,2.7c-0.1,1.5-0.1,3.1-0.1,4.7
			c0,1.6,0.1,2.7,0.3,3.1c0,0.1,0.1,0.2,0.1,0.2c0,0.2-0.3,0.3-0.9,0.3c-0.6,0-1.2-0.2-1.9-0.5C178.4,76.2,178.3,76,178.3,75.5z
			 M180.2,63.5l-0.6,0c-0.4,0-0.7,0.1-0.8,0.3c0,0-0.1,0.1-0.1,0.1c-0.2,0-0.3-0.4-0.3-1.1c0-0.7,0.1-1.2,0.3-1.3
			c0.2-0.2,0.6-0.3,1.1-0.3c0.5,0,0.9,0.1,1.1,0.3c0.2,0.2,0.3,0.5,0.3,0.9c0,0.4-0.1,0.7-0.2,0.9C180.8,63.4,180.6,63.5,180.2,63.5
			z"/>
		<path class="st2" d="M190.7,69.1l0,3.1c0,2.1,0.2,3.4,0.7,3.8c0.1,0.1,0.1,0.1,0.1,0.2c0,0.2-0.5,0.4-1.5,0.4
			c-1,0-1.6-0.3-1.6-0.9c0-0.1,0-0.4,0-0.9l0.1-3.8c0-0.1-0.1-0.2-0.2-0.2c-0.8,0-1.5,0.2-2.1,0.6c-0.7,0.4-1,1-1,1.6
			c0,0.4,0.1,0.6,0.3,0.9s0.4,0.4,0.7,0.4c0.3,0,0.5-0.1,0.7-0.2c0.2-0.1,0.3-0.2,0.3-0.2c0.3,0,0.4,0.3,0.4,0.8
			c0,0.5-0.2,1-0.7,1.3c-0.5,0.3-1,0.5-1.6,0.5c-0.5,0-1-0.1-1.4-0.3c-0.4-0.2-0.7-0.4-0.8-0.6c-0.2-0.2-0.3-0.5-0.4-0.8
			c-0.1-0.4-0.2-0.7-0.2-1c0-1.1,0.3-2,1.1-2.7c0.7-0.7,1.6-1.1,2.7-1.4c1.4-0.3,2.2-0.5,2.3-0.8c0-0.2,0.1-0.5,0.1-0.9
			c0-0.8-0.4-1.3-1.3-1.3c-0.4,0-0.7,0.1-1,0.3c-0.3,0.2-0.4,0.5-0.4,0.9l0.1,0.6c0,0.3-0.3,0.4-0.9,0.5l-0.3,0
			c-0.5,0-0.9-0.1-1.1-0.4c-0.3-0.2-0.4-0.6-0.4-1c0-0.3,0.1-0.5,0.3-0.8c0.2-0.3,0.4-0.6,0.6-0.8c0.3-0.2,0.6-0.4,1.2-0.5
			c0.5-0.2,1-0.2,1.5-0.2c0.5,0,0.9,0,1.1,0c0.3,0,0.6,0.1,1.1,0.2c0.5,0.1,0.9,0.3,1.2,0.7c0.3,0.3,0.5,0.7,0.5,1.1
			C190.7,67.8,190.7,68.4,190.7,69.1z"/>
		<path class="st2" d="M192.2,76.4c0.3-1.7,0.4-3.8,0.4-6.2c0-2.4-0.1-4-0.2-4.7c0-0.2,0.2-0.3,0.7-0.3c0.7,0,1.2,0.3,1.5,0.8
			c0,0,0.1,0.1,0.1,0.1c0.1,0,0.1,0,0.1,0c0.5-0.5,1.3-0.8,2.3-0.8c1,0,1.9,0.3,2.5,0.8c0.6,0.5,0.9,1.3,0.9,2.3
			c0,0.6-0.1,1.5-0.2,2.6c-0.1,1.1-0.2,1.9-0.2,2.5c0,1.3,0.2,2.2,0.6,2.8c0.1,0.1,0.1,0.2,0.1,0.2c0,0.2-0.2,0.3-0.7,0.3
			c-2,0-3-0.9-3-2.6c0-0.7,0.2-1.6,0.5-2.8c0.3-1.2,0.5-2.1,0.5-2.7c0-1.3-0.5-1.9-1.6-1.9c-0.5,0-0.9,0.2-1.2,0.5
			c-0.3,0.3-0.4,0.6-0.4,1c0,0.4,0,1.1,0,2.2c0,1.7,0.1,3.1,0.2,4.3l0,0.5c0,0.4-0.3,0.8-0.9,1c-0.6,0.2-1.1,0.4-1.5,0.4
			S192.2,76.6,192.2,76.4z"/>
		<path class="st2" d="M209,73c0,0.7-0.1,1.3-0.4,1.8c-0.3,0.5-0.6,0.9-0.9,1.1c-0.3,0.2-0.7,0.4-1.2,0.6c-0.6,0.2-1.2,0.3-1.6,0.3
			c-1,0-1.9-0.2-2.6-0.6c-0.7-0.4-1-1.1-1-1.9c0-0.5,0.1-1,0.4-1.3c0.4-0.5,1-0.7,1.6-0.7c0.2,0,0.3,0.1,0.3,0.3c0,0,0,0.1-0.1,0.4
			c-0.1,0.2-0.1,0.5-0.1,0.9c0,0.4,0.1,0.7,0.4,0.9c0.3,0.3,0.6,0.4,1,0.4c0.4,0,0.7-0.1,1-0.2c0.2-0.1,0.4-0.3,0.5-0.5
			c0.1-0.3,0.2-0.6,0.2-0.8c0-0.5-0.2-0.9-0.7-1.2c-0.5-0.3-1-0.6-1.5-0.8c-0.6-0.2-1.1-0.5-1.5-1c-0.5-0.4-0.7-1-0.7-1.7
			c0-1.1,0.4-2,1.1-2.6c0.7-0.6,1.7-0.9,2.9-0.9c0.5,0,1.1,0.1,1.7,0.2c0.6,0.2,0.9,0.4,0.9,0.8c0,0.4-0.1,0.7-0.2,1
			c-0.1,0.3-0.3,0.5-0.4,0.5c-0.1,0-0.2,0-0.2-0.1c0-0.1-0.1-0.2-0.2-0.3c-0.1-0.1-0.3-0.2-0.6-0.4c-0.3-0.2-0.6-0.2-0.8-0.2
			c-0.2,0-0.4,0-0.4,0c-0.1,0-0.2,0-0.4,0.1c-0.2,0-0.3,0.1-0.5,0.2c-0.4,0.2-0.5,0.5-0.5,0.9c0,0.3,0.1,0.4,0.2,0.6
			c0.1,0.1,0.2,0.2,0.3,0.3c0.1,0.1,0.2,0.1,0.3,0.2c0.2,0.1,0.3,0.1,0.3,0.2c0.1,0,0.2,0.1,0.4,0.2c0.2,0.1,0.4,0.2,0.4,0.2
			C208.1,70.5,209,71.6,209,73z"/>
	</g>
</g>
</svg>
