<svg xmlns="http://www.w3.org/2000/svg" width="24" height="24" fill="none" viewBox="0 0 24 24">
    <path fill="#000" fill-rule="evenodd" d="M15.73 14.836l-.353-.34c1.233-1.433 1.975-3.295 1.975-5.32C17.352 4.66 13.692 1 9.176 1S1 4.66 1 9.176s3.66 8.176 8.176 8.176c2.025 0 3.887-.742 5.32-1.975l.34.353v.993l5.4 5.39c.492.49 1.287.49 1.778-.002l.097-.097c.491-.49.492-1.286.001-1.778l-5.389-5.4h-.993zM3.516 9.176c0-3.132 2.528-5.66 5.66-5.66s5.66 2.528 5.66 5.66-2.528 5.66-5.66 5.66-5.66-2.528-5.66-5.66z" clip-rule="evenodd"/>
    <mask id="jsc2c0su0a" width="22" height="22" x="1" y="1" maskUnits="userSpaceOnUse">
        <path fill="#fff" fill-rule="evenodd" d="M15.73 14.836l-.353-.34c1.233-1.433 1.975-3.295 1.975-5.32C17.352 4.66 13.692 1 9.176 1S1 4.66 1 9.176s3.66 8.176 8.176 8.176c2.025 0 3.887-.742 5.32-1.975l.34.353v.993l5.4 5.39c.492.49 1.287.49 1.778-.002l.097-.097c.491-.49.492-1.286.001-1.778l-5.389-5.4h-.993zM3.516 9.176c0-3.132 2.528-5.66 5.66-5.66s5.66 2.528 5.66 5.66-2.528 5.66-5.66 5.66-5.66-2.528-5.66-5.66z" clip-rule="evenodd"/>
    </mask>
</svg>
